<svg width="200" height="200" viewBox="0 0 200 200" fill="none" xmlns="http://www.w3.org/2000/svg">
<path d="M75.1058 61.1103C52.207 38.8304 67.9804 0 99.9296 0C131.879 0 147.652 38.8304 124.753 61.1103L99.9296 85.2632L75.1058 61.1103Z" fill="#EEF8D3"/>
<path d="M75.2498 138.89C52.351 161.17 68.1244 200 100.074 200C132.023 200 147.796 161.17 124.897 138.89L100.074 114.737L75.2498 138.89Z" fill="#EEF8D3"/>
<path d="M61.1103 124.893C38.8304 147.792 0 132.019 0 100.07C0 68.1205 38.8304 52.3471 61.1103 75.2459L85.2632 100.07L61.1103 124.893Z" fill="#EEF8D3"/>
<path d="M138.89 124.749C161.17 147.648 200 131.874 200 99.9252C200 67.976 161.17 52.2026 138.89 75.1014L114.737 99.9252L138.89 124.749Z" fill="#EEF8D3"/>
</svg>
