<svg width="23" height="42" viewBox="0 0 23 42" fill="none" xmlns="http://www.w3.org/2000/svg">
<path d="M5.73777 38.8226C7.14401 38.8226 8.01456 38.0357 7.99781 36.663L7.663 17.8627C7.663 17.2769 7.91411 16.8416 8.43309 16.6071C10.6429 15.6361 11.5971 14.615 11.48 11.6853L11.0112 1.40625C10.9777 0.669643 10.5425 0.251116 9.85607 0.251116C9.20317 0.251116 8.80139 0.686384 8.80139 1.43973L8.91857 11.4342C8.91857 12.0201 8.55027 12.3884 7.99781 12.3884C7.42861 12.3884 7.02683 12.0368 7.02683 11.4844L6.85943 1.13839C6.84269 0.418527 6.42416 0 5.73777 0C5.05139 0 4.6496 0.418527 4.63286 1.13839L4.46544 11.4844C4.46544 12.0368 4.06366 12.3884 3.49447 12.3884C2.94201 12.3884 2.55697 12.0201 2.55697 11.4342L2.67416 1.43973C2.67416 0.686384 2.28911 0.251116 1.61947 0.251116C0.933083 0.251116 0.497814 0.669643 0.464333 1.40625L0.0123239 11.6853C-0.121605 14.615 0.832636 15.6361 3.04246 16.6071C3.56143 16.8416 3.81254 17.2769 3.81254 17.8627L3.49447 36.663C3.47773 38.0357 4.33151 38.8226 5.73777 38.8226ZM18.8293 24.2243L18.4777 36.5793C18.4276 38.0357 19.3147 38.8226 20.7043 38.8226C22.1273 38.8226 22.9979 38.1027 22.9979 36.7634V1.25558C22.9979 0.401786 22.4119 0 21.8091 0C21.173 0 20.7546 0.334821 20.2189 1.12165C17.5234 4.90513 15.749 11.9866 15.749 18.683V19.5033C15.749 20.6584 16.1674 21.5123 17.0046 22.0647L17.9923 22.7344C18.5949 23.1529 18.8627 23.6217 18.8293 24.2243Z" fill="#262626"/>
</svg>
