<svg width="36" height="38" viewBox="0 0 36 38" fill="none" xmlns="http://www.w3.org/2000/svg">
<path d="M34.3935 11.7807L21.383 5.82702C20.0275 5.2157 18.9244 4.92332 17.8213 4.9499C16.7316 4.92332 15.6285 5.2157 14.2597 5.82702L1.26251 11.7807C0.411978 12.1662 0 12.8439 0 13.5217C0 14.1994 0.411978 14.864 1.26251 15.2627L6.73784 17.7611L15.1502 13.8141C15.0705 13.7211 15.0438 13.6147 15.0438 13.5217C15.0438 12.6844 16.4525 12.0465 17.8745 12.0465C19.3098 12.0465 20.6919 12.6844 20.6919 13.5217C20.6919 14.3855 19.3098 15.0367 17.8745 15.0367C17.436 15.0367 16.9974 14.9702 16.612 14.864L8.58509 18.6249L14.2597 21.2297C15.6285 21.8542 16.7316 22.1201 17.8213 22.1068C18.9244 22.1201 20.0275 21.8542 21.383 21.2297L34.3935 15.2627C35.244 14.864 35.656 14.1994 35.656 13.5217C35.656 12.8439 35.244 12.1662 34.3935 11.7807ZM8.53193 20.5918V28.6719C10.7646 30.0274 13.9541 30.8513 17.8213 30.8513C25.6622 30.8513 30.7123 27.4891 30.7123 23.5155V18.9438L22.1405 22.8643C20.5856 23.582 19.177 23.9408 17.8213 23.9275C16.4791 23.9408 15.0571 23.582 13.5022 22.8643L8.53193 20.5918ZM4.94374 18.9438V23.5155C4.94374 24.6717 5.60821 26.1069 6.80428 27.3296V19.8077L4.94374 18.9438ZM6.80428 31.755H8.53193V28.6719C7.86745 28.2732 7.28271 27.8214 6.80428 27.3296V31.755ZM5.7544 31.8481V35.3433C5.7544 36.3932 6.43218 37.0709 7.48206 37.0709H7.84087C8.89075 37.0709 9.56852 36.3932 9.56852 35.3433V31.8481C9.56852 30.7982 8.89075 30.1204 7.84087 30.1204H7.48206C6.43218 30.1204 5.7544 30.7982 5.7544 31.8481Z" fill="#262626"/>
</svg>
