<svg width="24" height="22" viewBox="0 0 24 22" fill="none" xmlns="http://www.w3.org/2000/svg">
<g filter="url(#filter0_d_4_3594)">
<path d="M22 6.86222C22 8.40874 21.4062 9.89412 20.3458 10.9929C17.9049 13.523 15.5374 16.1613 13.0053 18.5997C12.4249 19.1505 11.5042 19.1304 10.9488 18.5547L3.65376 10.9929C1.44875 8.7072 1.44875 5.01723 3.65376 2.73157C5.88044 0.423452 9.50794 0.423452 11.7346 2.73157L11.9998 3.00642L12.2648 2.73173C13.3324 1.6245 14.7864 1 16.3053 1C17.8242 1 19.2781 1.62444 20.3458 2.73157C21.4063 3.83045 22 5.31577 22 6.86222Z" stroke="#4C4C4C" stroke-width="2" stroke-linejoin="round" shape-rendering="crispEdges"/>
</g>
<defs>
<filter id="filter0_d_4_3594" x="-3" y="0" width="30" height="28" filterUnits="userSpaceOnUse" color-interpolation-filters="sRGB">
<feFlood flood-opacity="0" result="BackgroundImageFix"/>
<feColorMatrix in="SourceAlpha" type="matrix" values="0 0 0 0 0 0 0 0 0 0 0 0 0 0 0 0 0 0 127 0" result="hardAlpha"/>
<feOffset dy="4"/>
<feGaussianBlur stdDeviation="2"/>
<feComposite in2="hardAlpha" operator="out"/>
<feColorMatrix type="matrix" values="0 0 0 0 0 0 0 0 0 0 0 0 0 0 0 0 0 0 0.25 0"/>
<feBlend mode="normal" in2="BackgroundImageFix" result="effect1_dropShadow_4_3594"/>
<feBlend mode="normal" in="SourceGraphic" in2="effect1_dropShadow_4_3594" result="shape"/>
</filter>
</defs>
</svg>
