<svg width="18" height="18" viewBox="0 0 18 18" fill="none" xmlns="http://www.w3.org/2000/svg">
<path d="M0 8.53793C0 9.93586 0.343192 11.25 0.962614 12.4219L2.41071 10.9738C2.60324 10.7813 2.89621 10.7813 3.08873 10.9738C3.28125 11.1663 3.28962 11.4593 3.08873 11.6601L1.46484 13.2841C1.67411 13.577 1.88337 13.8616 2.12611 14.1211L14.1294 2.12611C13.8616 1.88337 13.5686 1.66574 13.2841 1.46484L11.6434 3.10547C11.4509 3.29799 11.1496 3.28962 10.957 3.10547C10.7645 2.91294 10.7645 2.61998 10.957 2.41909L12.4135 0.970986C11.25 0.343192 9.92743 0 8.52957 0C3.86719 0 0 3.86719 0 8.53793ZM10.3627 4.38616L9.21593 5.53292C9.02343 5.72544 8.72207 5.71708 8.52957 5.53292C8.34543 5.3404 8.33707 5.03069 8.52957 4.84654L9.68472 3.69978C9.87722 3.51563 10.1786 3.50726 10.3627 3.69978C10.5552 3.8923 10.5552 4.19364 10.3627 4.38616ZM7.94364 6.81361L6.78851 7.96036C6.60435 8.1445 6.30302 8.1445 6.11049 7.96036C5.91797 7.76786 5.91797 7.4665 6.11049 7.274L7.25729 6.12723C7.44979 5.93471 7.75114 5.93471 7.94364 6.12723C8.12779 6.31139 8.13614 6.62946 7.94364 6.81361ZM5.51619 9.23272L4.37779 10.3794C4.1769 10.572 3.88393 10.5636 3.69141 10.3794C3.49889 10.1869 3.49889 9.894 3.69141 9.70143L4.8298 8.54629C5.02232 8.35379 5.32366 8.36214 5.51619 8.54629C5.70034 8.73886 5.71708 9.04014 5.51619 9.23272ZM8.53793 17.0759C13.2087 17.0759 17.0759 13.2004 17.0759 8.53793C17.0759 7.14843 16.7327 5.82589 16.1133 4.66239L14.6651 6.10212C14.4643 6.30301 14.1797 6.29464 13.9871 6.10212C13.803 5.9096 13.7863 5.61663 13.9871 5.41574L15.6111 3.80022C15.4101 3.50726 15.2009 3.22266 14.9581 2.96317L2.9548 14.9581C3.22266 15.1925 3.50726 15.4101 3.79185 15.6111L5.43248 13.9704C5.63337 13.7611 5.92634 13.7779 6.11887 13.9704C6.31139 14.1629 6.31976 14.4476 6.11887 14.6484L4.65402 16.1133C5.82589 16.7244 7.14007 17.0759 8.53793 17.0759ZM13.3845 7.37443L12.2461 8.52957C12.0536 8.72207 11.7522 8.71371 11.5597 8.52957C11.3756 8.32872 11.3672 8.03572 11.5597 7.84322L12.7065 6.69643C12.899 6.50391 13.192 6.50391 13.3845 6.69643C13.5854 6.88058 13.577 7.18193 13.3845 7.37443ZM10.9654 9.80193L9.81864 10.9403C9.62614 11.1412 9.32479 11.1412 9.13229 10.9403C8.94807 10.7561 8.93972 10.4464 9.13229 10.2539L10.2874 9.1155C10.4716 8.93136 10.7813 8.93136 10.9654 9.1155C11.1579 9.308 11.1579 9.601 10.9654 9.80193ZM8.54629 12.221L7.39122 13.3677C7.19864 13.5519 6.90569 13.5603 6.71317 13.3677C6.52065 13.1752 6.52065 12.8739 6.71317 12.6814L7.85993 11.5346C8.05243 11.3421 8.35379 11.3588 8.54629 11.5346C8.7305 11.7355 8.73886 12.0369 8.54629 12.221Z" fill="#CBEA7B"/>
</svg>
