<svg width="39" height="37" viewBox="0 0 39 37" fill="none" xmlns="http://www.w3.org/2000/svg">
<g clip-path="url(#clip0_4_3514)">
<path d="M9.56101 1.27225C8.7407 3.16399 8.35566 5.05573 8.35566 6.89724C8.35566 13.0077 12.6748 18.0134 19.4047 18.0134C26.1347 18.0134 30.4539 13.0077 30.4539 6.89724C30.4539 5.05573 30.0689 3.16399 29.2653 1.27225C28.897 0.46868 27.9427 0.351493 27.3066 1.00439L23.5566 4.82136L20.359 0.686314C19.84 0.0166712 18.9694 0.0166712 18.4673 0.686314L15.2697 4.82136L11.503 1.00439C10.8668 0.351493 9.91257 0.46868 9.56101 1.27225ZM18.0654 35.0558C18.0654 35.8091 18.6514 36.3114 19.4047 36.3114C28.0599 36.3114 36.0119 30.9709 38.6236 23.4709C38.9919 22.4496 38.6067 21.7968 37.5186 21.7968C28.9639 21.7968 22.8031 26.8191 20.3256 33.1639L20.7609 33.7332V16.3225H18.0654V35.0558ZM15.772 28.6606C12.6246 24.5758 7.58556 21.7968 1.2407 21.7968C0.152528 21.7968 -0.232516 22.4496 0.135787 23.4709C2.37909 29.9665 8.60677 34.8548 15.9059 36.0099C15.8221 35.7254 15.772 35.3905 15.772 35.0558V28.6606Z" fill="#262626"/>
</g>
<defs>
<clipPath id="clip0_4_3514">
<rect width="38.7593" height="36.3114" fill="white"/>
</clipPath>
</defs>
</svg>
