<svg width="141" height="17" viewBox="0 0 141 17" fill="none" xmlns="http://www.w3.org/2000/svg">
<path d="M12.2175 12.06V0.7425H15.6375V16.4925H10.71L3.8025 5.1975H3.42V16.4925H0V0.7425H4.6125V0.765H4.9275L11.8125 12.06H12.2175Z" fill="white"/>
<path d="M28.08 3.87H31.5V16.4925H28.08V14.6475H27.9225C27.1125 15.7725 25.965 16.4925 23.6925 16.4925C18.36 16.4925 18.225 12.0375 18.225 10.1925V3.87H21.6225V10.1925C21.6225 11.1825 21.3975 13.5675 24.6825 13.5675C27.63 13.5675 28.08 11.6775 28.08 9.9675V3.87Z" fill="white"/>
<path d="M38.745 6.795V11.2725V11.5425C38.745 13.365 39.555 13.1175 42.84 12.9375V16.2675C42.84 16.2675 42.165 16.4925 38.745 16.4925C35.3025 16.4925 35.3025 13.68 35.3025 11.8575V6.795H33.6375V3.915H35.3025V0.270001H38.745V3.915H42.84V6.795H38.745Z" fill="white"/>
<path d="M52.4728 3.87C53.3728 3.87 54.1153 4.0725 54.7003 4.2075L54.1603 7.425C53.8453 7.335 52.9678 7.155 51.8878 7.155C49.3453 7.155 48.6028 9.135 48.6028 10.845V16.4925H45.1828V3.87H48.6028V5.7375H48.8053C49.5253 4.5225 50.2903 3.87 52.4728 3.87Z" fill="white"/>
<path d="M59.9279 16.4925H56.5304V3.96H59.9279V16.4925ZM59.9279 3.06H56.5304V0H59.9279V3.06Z" fill="white"/>
<path d="M67.3824 6.795V11.2725V11.5425C67.3824 13.365 68.1924 13.1175 71.4774 12.9375V16.2675C71.4774 16.2675 70.8024 16.4925 67.3824 16.4925C63.9399 16.4925 63.9399 13.68 63.9399 11.8575V6.795H62.2749V3.915H63.9399V0.270001H67.3824V3.915H71.4774V6.795H67.3824Z" fill="white"/>
<path d="M77.1518 16.4925H73.7543V3.96H77.1518V16.4925ZM77.1518 3.06H73.7543V0H77.1518V3.06Z" fill="white"/>
<path d="M86.5188 3.645C90.3663 3.645 93.5613 5.6925 93.5613 10.08C93.5613 14.5125 90.3663 16.4925 86.5188 16.4925C82.6938 16.4925 79.4988 14.445 79.4988 10.08C79.4988 5.7375 82.6938 3.645 86.5188 3.645ZM86.5188 13.3875C88.6788 13.3875 90.2088 12.3525 90.2088 10.08C90.2088 7.74 88.6788 6.7725 86.5188 6.7725C84.3813 6.7725 82.8513 7.695 82.8513 10.08C82.8513 12.4425 84.3813 13.3875 86.5188 13.3875Z" fill="white"/>
<path d="M103.664 3.87C108.996 3.87 109.131 8.3475 109.131 10.1925V16.4925H105.734V10.1925C105.734 9.2025 105.936 6.8175 102.674 6.8175C99.7037 6.8175 99.2762 8.7075 99.2762 10.4175V16.4925H95.8561V3.87H99.2762V5.7375H99.4337C100.244 4.6125 101.391 3.87 103.664 3.87Z" fill="white"/>
<path d="M115.106 16.4925H111.708V3.96H115.106V16.4925ZM115.106 3.06H111.708V0H115.106V3.06Z" fill="white"/>
<path d="M123.938 8.8425C126.795 9.27 130.035 9.765 130.035 12.7575C130.035 15.885 127.785 16.4925 123.915 16.4925C121.058 16.4925 119.1 15.975 118.088 14.9625C117.21 14.085 117.21 13.0275 117.233 12.375V12.1275H120.743V12.24C120.743 13.32 121.553 13.815 123.825 13.815C125.198 13.815 126.503 13.635 126.503 12.8025C126.503 11.8575 125.288 11.6775 123.915 11.52C123.735 11.4975 123.555 11.475 123.375 11.4525C119.753 10.98 117.503 10.17 117.503 7.65C117.503 5.895 118.515 3.8025 123.375 3.8025C128.595 3.8025 129.698 6.12 129.698 8.055V8.1675H126.21V8.055C126.21 7.065 125.355 6.525 123.375 6.525C121.463 6.525 121.058 7.2225 121.058 7.605C121.058 8.1675 121.44 8.4825 123.645 8.82L123.938 8.8425Z" fill="white"/>
<path d="M136.72 6.795V11.2725V11.5425C136.72 13.365 137.53 13.1175 140.815 12.9375V16.2675C140.815 16.2675 140.14 16.4925 136.72 16.4925C133.278 16.4925 133.278 13.68 133.278 11.8575V6.795H131.613V3.915H133.278V0.270001H136.72V3.915H140.815V6.795H136.72Z" fill="white"/>
</svg>
