<svg width="94" height="11" viewBox="0 0 94 11" fill="none" xmlns="http://www.w3.org/2000/svg">
<path d="M8.145 8.04V0.495H10.425V10.995H7.14L2.535 3.465H2.28V10.995H0V0.495H3.075V0.51H3.285L7.875 8.04H8.145Z" fill="white"/>
<path d="M18.72 2.58H21V10.995H18.72V9.765H18.615C18.075 10.515 17.31 10.995 15.795 10.995C12.24 10.995 12.15 8.025 12.15 6.795V2.58H14.415V6.795C14.415 7.455 14.265 9.045 16.455 9.045C18.42 9.045 18.72 7.785 18.72 6.645V2.58Z" fill="white"/>
<path d="M25.83 4.53V7.515V7.695C25.83 8.91 26.37 8.745 28.56 8.625V10.845C28.56 10.845 28.11 10.995 25.83 10.995C23.535 10.995 23.535 9.12 23.535 7.905V4.53H22.425V2.61H23.535V0.18H25.83V2.61H28.56V4.53H25.83Z" fill="white"/>
<path d="M34.9819 2.58C35.5819 2.58 36.0769 2.715 36.4669 2.805L36.1069 4.95C35.8969 4.89 35.3119 4.77 34.5919 4.77C32.8969 4.77 32.4019 6.09 32.4019 7.23V10.995H30.1219V2.58H32.4019V3.825H32.5369C33.0169 3.015 33.5269 2.58 34.9819 2.58Z" fill="white"/>
<path d="M39.9519 10.995H37.6869V2.64H39.9519V10.995ZM39.9519 2.04H37.6869V0H39.9519V2.04Z" fill="white"/>
<path d="M44.9216 4.53V7.515V7.695C44.9216 8.91 45.4616 8.745 47.6516 8.625V10.845C47.6516 10.845 47.2016 10.995 44.9216 10.995C42.6266 10.995 42.6266 9.12 42.6266 7.905V4.53H41.5166V2.61H42.6266V0.18H44.9216V2.61H47.6516V4.53H44.9216Z" fill="white"/>
<path d="M51.4345 10.995H49.1695V2.64H51.4345V10.995ZM51.4345 2.04H49.1695V0H51.4345V2.04Z" fill="white"/>
<path d="M57.6792 2.43C60.2442 2.43 62.3742 3.795 62.3742 6.72C62.3742 9.675 60.2442 10.995 57.6792 10.995C55.1292 10.995 52.9992 9.63 52.9992 6.72C52.9992 3.825 55.1292 2.43 57.6792 2.43ZM57.6792 8.925C59.1192 8.925 60.1392 8.235 60.1392 6.72C60.1392 5.16 59.1192 4.515 57.6792 4.515C56.2542 4.515 55.2342 5.13 55.2342 6.72C55.2342 8.295 56.2542 8.925 57.6792 8.925Z" fill="white"/>
<path d="M69.1091 2.58C72.6641 2.58 72.7541 5.565 72.7541 6.795V10.995H70.4891V6.795C70.4891 6.135 70.6241 4.545 68.4491 4.545C66.4691 4.545 66.1841 5.805 66.1841 6.945V10.995H63.9041V2.58H66.1841V3.825H66.2891C66.8291 3.075 67.5941 2.58 69.1091 2.58Z" fill="white"/>
<path d="M76.7371 10.995H74.4721V2.64H76.7371V10.995ZM76.7371 2.04H74.4721V0H76.7371V2.04Z" fill="white"/>
<path d="M82.6253 5.895C84.5303 6.18 86.6903 6.51 86.6903 8.505C86.6903 10.59 85.1903 10.995 82.6103 10.995C80.7053 10.995 79.4003 10.65 78.7253 9.975C78.1403 9.39 78.1403 8.685 78.1553 8.25V8.085H80.4953V8.16C80.4953 8.88 81.0353 9.21 82.5503 9.21C83.4653 9.21 84.3353 9.09 84.3353 8.535C84.3353 7.905 83.5253 7.785 82.6103 7.68C82.4903 7.665 82.3703 7.65 82.2503 7.635C79.8353 7.32 78.3353 6.78 78.3353 5.1C78.3353 3.93 79.0103 2.535 82.2503 2.535C85.7303 2.535 86.4653 4.08 86.4653 5.37V5.445H84.1403V5.37C84.1403 4.71 83.5703 4.35 82.2503 4.35C80.9753 4.35 80.7053 4.815 80.7053 5.07C80.7053 5.445 80.9603 5.655 82.4303 5.88L82.6253 5.895Z" fill="white"/>
<path d="M91.1468 4.53V7.515V7.695C91.1468 8.91 91.6868 8.745 93.8768 8.625V10.845C93.8768 10.845 93.4268 10.995 91.1468 10.995C88.8518 10.995 88.8518 9.12 88.8518 7.905V4.53H87.7418V2.61H88.8518V0.18H91.1468V2.61H93.8768V4.53H91.1468Z" fill="white"/>
</svg>
